<?xml version="1.0" encoding="iso-8859-1"?>
<!-- Generator: Adobe Illustrator 23.0.5, SVG Export Plug-In . SVG Version: 6.00 Build 0)  -->
<svg version="1.1" id="Layer_1" xmlns="http://www.w3.org/2000/svg" xmlns:xlink="http://www.w3.org/1999/xlink" x="0px" y="0px"
	 viewBox="0 0 1200 1200" style="enable-background:new 0 0 1200 1200;" xml:space="preserve">
<g>
	<path style="fill:#ED7E25;" d="M136.437,495.884c63.231,14.267,85.601,81.8,69.507,138.544
		c-8.832,31.122-31.559,58.475-63.764,65.01c-4.917,1.003-15.658,1.893-32.206,2.669c-21.643,1.019-43.318,1.213-65.01,0.582
		c-0.566-0.016-0.857-0.307-0.857-0.873c-0.178-58.038-0.129-116.06,0.113-174.082c0.081-15.545,5.969-25.8,17.664-30.75
		c4.772-2.022,12.989-3.106,24.684-3.284C103.019,493.458,121.54,492.52,136.437,495.884 M84.546,663.901
		c8.978,1.181,21.449,0.388,30.556-0.356c24.231-1.973,41.005-10.077,49.562-33.387c12.035-32.804,7.554-80.166-30.523-93.495
		c-13.733-4.804-33.904-3.413-49.74-3.106c-0.485,0-0.728,0.243-0.728,0.744v128.596C83.673,663.399,84.045,663.836,84.546,663.901
		L84.546,663.901z"/>
	<path style="fill:#ED7E25;" d="M278.896,592.437c-0.243,1.715-0.356,3.898-0.34,6.567c0.146,21.222,0.129,55.515-0.048,102.861
		c0,0.437-0.21,0.647-0.647,0.663l-34.956,0.146c-1.407,0-2.087-0.696-2.038-2.087c1.65-57.601-0.21-115.543,0.34-173.209
		c0.21-22.63,14.251-33.759,36.46-33.678c0.599,0,0.906,0.307,0.906,0.922l0.032,71.221c0,2.847,0.712,3.041,2.135,0.566
		c3.834-6.664,11.355-10.385,18.958-13.523c34.066-14.04,72.499,3.801,74.392,43.14c1.682,34.988,0.34,70.445,0.809,105.53
		c0,0.566-0.291,0.857-0.857,0.874l-34.017,0.421c-1.731,0.016-2.588-0.841-2.556-2.572c0.55-29.246,0.21-58.96-1.003-89.144
		c-0.647-16.062-9.802-29.812-27.385-27.968c-10.32,1.084-17.373,7.279-17.826,17.858c-0.032,0.615-0.679,1.019-1.229,0.76
		c-4.464-2.054-7.845-5.241-10.126-9.527C279.382,591.304,279.042,591.369,278.896,592.437L278.896,592.437z"/>
	<path style="fill:#ED7E25;" d="M932.133,702.561c-0.259,0-0.469-0.21-0.469-0.469c0.032-54.593,0.032-109.299-0.016-164.118
		c0-12.989,0.825-21.546,2.491-25.687c5.403-13.41,19.767-18.424,34.131-18.683c0.679-0.016,1.019,0.323,1.019,0.987v206.773
		c0,1.132-0.566,1.682-1.682,1.666L932.133,702.561L932.133,702.561z"/>
	<path style="fill:#ED7E25;" d="M862.853,686.967c-20.155,19.443-49.546,24.846-74.958,12.876
		c-30.556-14.396-44.936-49.999-41.086-82.674c4.934-41.83,41.135-76.462,84.566-67.129c20.074,4.319,31.462,23.228,25.832,43.448
		c-0.323,1.165-0.922,1.326-1.779,0.469c-12.86-12.714-39.549-14.72-53.832-3.72c-30.151,23.212-20.462,81.833,22.484,81.444
		c33.645-0.324,39.533-34.422,39.711-60.254c0.275-38.902,0.404-77.708,0.388-116.416c0-0.518,0.421-0.922,0.938-0.89
		c14.688,0.663,28.987,7.133,34.519,20.964c1.44,3.575,2.151,8.654,2.151,15.237c-0.032,57.132-0.049,114.249-0.032,171.349
		c0,0.566-0.275,0.841-0.825,0.841h-35.57c-0.809,0-1.213-0.404-1.213-1.213v-13.782
		C864.147,686.854,863.338,686.498,862.853,686.967L862.853,686.967z"/>
	<path style="fill:#ED7E25;" d="M401.314,604.989c7.036-29.181,44.37-35.554,64.8-18.084c4.432,3.785,7.02,9.01,7.764,15.674
		c0.065,0.631-0.178,0.793-0.728,0.502c-10.935-5.937-24.215-1.698-30.523,7.441c-3.915,5.678-5.451,12.924-4.594,21.74
		c4.578,47.184,71.804,51.714,82.56,6.098c7.667-32.513-13.28-61.273-48.365-56.857c-0.55,0.081-1.035-0.065-1.456-0.437
		c-15.415-13.313-32.594-15.852-51.568-7.651c-0.776,0.34-0.89,0.178-0.34-0.469c46.004-53.833,132.284-26.48,141.78,42.72
		c2.75,20.042-1.65,38.466-13.183,55.256c-33.209,48.333-106.339,47.686-136.797-3.445
		C399.081,648.016,395.959,627.198,401.314,604.989L401.314,604.989z"/>
	<path style="fill:#ED7E25;" d="M624.748,564.081c3.251-4.06,5.823-6.729,7.683-7.991c36.816-25.121,89.095-8.767,89.532,40.795
		c0.307,35.085,0.356,70.17,0.178,105.271c0,0.501-0.259,0.76-0.76,0.76h-36.654c-0.324,0-0.582-0.275-0.582-0.599
		c0.081-33.192,1.391-66.352-1.795-98.963c-2.62-26.835-40.455-34.26-46.084-4.367c-0.113,0.663-0.469,0.809-1.035,0.437
		c-4.287-2.815-7.781-6.422-10.482-10.805c-0.55-0.89-0.825-0.825-0.825,0.227l0.032,113.294c0,0.323-0.259,0.582-0.582,0.599
		c-12.293,0.307-24.571,0.178-36.848-0.372c-0.663-0.032-1.003-0.372-1.003-1.035V548.843c0-0.534,0.275-0.809,0.809-0.809h36.799
		c0.534,0,0.809,0.275,0.809,0.809v14.962C623.939,564.663,624.214,564.744,624.748,564.081L624.748,564.081z"/>
	<path style="fill:#ED7E25;" d="M1065.146,581.259c-13.717-13.361-34.81-16.402-51.746-7.376c-0.259,0.129-0.518-0.178-0.324-0.404
		c21.044-24.506,51.924-34.389,82.932-25.994c36.848,9.98,62.956,46.23,59.72,84.534c-3.656,43.383-39.436,74.554-82.528,74.586
		c-53.072,0.032-94.66-56.372-75.152-107.536c11.42-29.974,63.667-29.537,71.027,3.381c0.113,0.501-0.421,0.906-0.874,0.663
		c-15.221-8.152-33.16,1.876-35.101,18.925c-3.72,32.659,24.7,57.019,56.194,45.551c45.81-16.709,32.206-94.401-22.759-85.876
		C1066.003,581.793,1065.534,581.631,1065.146,581.259L1065.146,581.259z"/>
</g>
</svg>
